# Blender v3.5.1 OBJ File: ''
# www.blender.org
mtllib hole_visual.mtl
o hole_visual_6star_hole2.001
v -0.049912 0.050012 -0.015363
v -0.049912 0.050012 0.014578
v 0.050088 0.050012 0.014578
v 0.050088 0.050012 -0.015363
v 0.050088 -0.049988 0.014578
v 0.050088 -0.049988 -0.015363
v -0.049912 -0.049988 0.014578
v -0.049912 -0.049988 -0.015363
v 0.022310 -0.016662 -0.015363
v 0.021619 -0.016292 -0.015363
v 0.022917 -0.022816 -0.015363
v 0.023414 -0.022210 -0.015363
v 0.023784 -0.021518 -0.015363
v 0.022917 -0.017159 -0.015363
v 0.023414 -0.017765 -0.015363
v 0.024011 -0.020768 -0.015363
v 0.023784 -0.018457 -0.015363
v 0.024011 -0.019207 -0.015363
v 0.024088 -0.019988 -0.015363
v 0.019308 0.016089 -0.015363
v 0.020088 0.016012 -0.015363
v 0.019308 -0.016064 -0.015363
v 0.018557 -0.016292 -0.015363
v -0.015912 -0.019988 -0.015363
v -0.015989 -0.019207 -0.015363
v -0.016216 -0.018457 -0.015363
v -0.019912 0.016012 -0.015363
v 0.018557 0.016317 -0.015363
v 0.017866 0.016687 -0.015363
v -0.019131 0.016089 -0.015363
v -0.018381 0.016317 -0.015363
v 0.016088 0.020012 -0.015363
v 0.017260 0.017184 -0.015363
v 0.016762 0.017790 -0.015363
v 0.016165 0.019232 -0.015363
v 0.016393 0.018482 -0.015363
v 0.016165 0.020793 -0.015363
v -0.017690 0.016687 -0.015363
v 0.016393 0.021543 -0.015363
v -0.017083 0.017184 -0.015363
v 0.016762 0.022235 -0.015363
v -0.016586 0.017790 -0.015363
v 0.017260 0.022841 -0.015363
v -0.016216 0.018482 -0.015363
v 0.017866 0.023338 -0.015363
v -0.015989 0.019232 -0.015363
v 0.018557 0.023708 -0.015363
v -0.015912 0.020012 -0.015363
v 0.019308 0.023936 -0.015363
v -0.015989 0.020793 -0.015363
v 0.020088 0.024012 -0.015363
v -0.016216 0.021543 -0.015363
v -0.016586 0.022235 -0.015363
v -0.017083 0.022841 -0.015363
v -0.017690 0.023338 -0.015363
v -0.018381 0.023708 -0.015363
v -0.019131 0.023936 -0.015363
v -0.019912 0.024012 -0.015363
v -0.022134 0.023338 -0.015363
v -0.022740 0.022841 -0.015363
v 0.020869 -0.016064 -0.015363
v 0.020088 -0.015988 -0.015363
v -0.021443 0.023708 -0.015363
v -0.020692 0.023936 -0.015363
v 0.020869 0.016089 -0.015363
v 0.021619 0.016317 -0.015363
v 0.022310 0.016687 -0.015363
v 0.022917 0.017184 -0.015363
v 0.020869 0.023936 -0.015363
v 0.023414 0.017790 -0.015363
v 0.021619 0.023708 -0.015363
v 0.022310 0.023338 -0.015363
v 0.023784 0.018482 -0.015363
v 0.024011 0.019232 -0.015363
v 0.022917 0.022841 -0.015363
v 0.023414 0.022235 -0.015363
v 0.024088 0.020012 -0.015363
v 0.024011 0.020793 -0.015363
v 0.023784 0.021543 -0.015363
v -0.020692 0.016089 -0.015363
v -0.016586 -0.017765 -0.015363
v -0.021443 0.016317 -0.015363
v -0.017083 -0.017159 -0.015363
v -0.022134 0.016687 -0.015363
v -0.017690 -0.016662 -0.015363
v -0.022740 0.017184 -0.015363
v -0.018381 -0.016292 -0.015363
v -0.023238 0.017790 -0.015363
v -0.019131 -0.016064 -0.015363
v -0.023607 0.018482 -0.015363
v -0.019912 -0.015988 -0.015363
v -0.023835 0.019232 -0.015363
v -0.020692 -0.016064 -0.015363
v -0.023912 0.020012 -0.015363
v -0.021443 -0.016292 -0.015363
v -0.022134 -0.016662 -0.015363
v -0.022740 -0.017159 -0.015363
v -0.023238 -0.017765 -0.015363
v -0.023607 -0.018457 -0.015363
v -0.023835 -0.019207 -0.015363
v -0.023912 -0.019988 -0.015363
v -0.023238 -0.022210 -0.015363
v -0.022740 -0.022816 -0.015363
v -0.023238 0.022235 -0.015363
v -0.023607 0.021543 -0.015363
v -0.023607 -0.021518 -0.015363
v -0.023835 -0.020768 -0.015363
v -0.023835 0.020793 -0.015363
v -0.015989 -0.020768 -0.015363
v 0.017866 -0.016662 -0.015363
v -0.016216 -0.021518 -0.015363
v 0.017260 -0.017159 -0.015363
v -0.016586 -0.022210 -0.015363
v 0.016762 -0.017765 -0.015363
v -0.017083 -0.022816 -0.015363
v 0.016393 -0.018457 -0.015363
v -0.017690 -0.023313 -0.015363
v 0.016165 -0.019207 -0.015363
v -0.018381 -0.023683 -0.015363
v 0.016088 -0.019988 -0.015363
v -0.019131 -0.023911 -0.015363
v 0.016165 -0.020768 -0.015363
v -0.019912 -0.023988 -0.015363
v 0.016393 -0.021518 -0.015363
v 0.016762 -0.022210 -0.015363
v 0.017260 -0.022816 -0.015363
v 0.017866 -0.023313 -0.015363
v 0.018557 -0.023683 -0.015363
v 0.019308 -0.023911 -0.015363
v 0.020088 -0.023988 -0.015363
v 0.022310 -0.023313 -0.015363
v -0.022134 -0.023313 -0.015363
v -0.021443 -0.023683 -0.015363
v 0.021619 -0.023683 -0.015363
v 0.020869 -0.023911 -0.015363
v -0.020692 -0.023911 -0.015363
v -0.023238 0.022235 0.014578
v -0.022740 0.022841 0.014578
v -0.022740 -0.022816 0.014578
v -0.023238 -0.022210 0.014578
v -0.023607 -0.021518 0.014578
v -0.023607 0.021543 0.014578
v -0.023835 0.020793 0.014578
v -0.023835 -0.020768 0.014578
v -0.023912 0.020012 0.014578
v -0.023835 0.019232 0.014578
v -0.023912 -0.019988 0.014578
v -0.023835 -0.019207 0.014578
v -0.023607 0.018482 0.014578
v -0.023238 0.017790 0.014578
v -0.023607 -0.018457 0.014578
v -0.023238 -0.017765 0.014578
v -0.022740 0.017184 0.014578
v -0.022740 -0.017159 0.014578
v -0.022134 0.016687 0.014578
v -0.022134 -0.016662 0.014578
v -0.021443 0.016317 0.014578
v -0.021443 -0.016292 0.014578
v -0.018381 -0.016292 0.014578
v -0.019912 0.016012 0.014578
v -0.020692 0.016089 0.014578
v -0.020692 -0.016064 0.014578
v -0.019131 -0.016064 0.014578
v -0.019912 -0.015988 0.014578
v 0.020869 0.016089 0.014578
v 0.020088 0.016012 0.014578
v 0.020869 -0.016064 0.014578
v 0.021619 -0.016292 0.014578
v -0.022134 0.023338 0.014578
v -0.021443 0.023708 0.014578
v 0.021619 0.016317 0.014578
v 0.022310 0.016687 0.014578
v -0.020692 0.023936 0.014578
v 0.022917 0.017184 0.014578
v 0.023414 0.017790 0.014578
v -0.019912 0.024012 0.014578
v -0.019131 0.023936 0.014578
v 0.023784 0.018482 0.014578
v -0.018381 0.023708 0.014578
v -0.017690 0.023338 0.014578
v 0.024011 0.019232 0.014578
v 0.024088 0.020012 0.014578
v -0.017083 0.022841 0.014578
v -0.016586 0.022235 0.014578
v -0.016216 0.021543 0.014578
v 0.016088 0.020012 0.014578
v 0.024011 0.020793 0.014578
v 0.023784 0.021543 0.014578
v 0.016165 0.020793 0.014578
v 0.016393 0.021543 0.014578
v 0.023414 0.022235 0.014578
v 0.022917 0.022841 0.014578
v 0.016762 0.022235 0.014578
v 0.017260 0.022841 0.014578
v 0.022310 0.023338 0.014578
v 0.021619 0.023708 0.014578
v 0.017866 0.023338 0.014578
v 0.020869 0.023936 0.014578
v 0.020088 0.024012 0.014578
v 0.018557 0.023708 0.014578
v 0.019308 0.023936 0.014578
v 0.009588 0.016467 0.014578
v 0.010644 0.006107 0.014578
v 0.019088 0.000012 0.014578
v 0.010644 -0.006082 0.014578
v 0.009588 -0.016442 0.014578
v 0.000088 -0.012176 0.014578
v -0.009412 -0.016442 0.014578
v -0.015927 -0.019837 0.014578
v 0.018557 -0.016292 0.014578
v 0.019308 -0.016064 0.014578
v 0.020088 -0.015988 0.014578
v 0.019308 0.016089 0.014578
v 0.016165 0.019232 0.014578
v -0.015989 0.020793 0.014578
v 0.016393 0.018482 0.014578
v -0.015912 0.020012 0.014578
v 0.016762 0.017790 0.014578
v -0.015989 0.019232 0.014578
v 0.017260 0.017184 0.014578
v -0.016216 0.018482 0.014578
v 0.017866 0.016687 0.014578
v -0.016586 0.017790 0.014578
v 0.018557 0.016317 0.014578
v -0.017083 0.017184 0.014578
v -0.017690 0.016687 0.014578
v -0.009433 0.016263 0.014578
v -0.009412 0.016467 0.014578
v 0.000088 0.012201 0.014578
v -0.010468 -0.006082 0.014578
v -0.018912 0.000012 0.014578
v -0.010468 0.006107 0.014578
v -0.018381 0.016317 0.014578
v -0.019131 0.016089 0.014578
v -0.015989 -0.019207 0.014578
v -0.016216 -0.018457 0.014578
v -0.017690 -0.016662 0.014578
v -0.016586 -0.017765 0.014578
v -0.017083 -0.017159 0.014578
v -0.022134 -0.023313 0.014578
v 0.022917 -0.022816 0.014578
v 0.022310 -0.023313 0.014578
v 0.021619 -0.023683 0.014578
v -0.021443 -0.023683 0.014578
v -0.020692 -0.023911 0.014578
v 0.020869 -0.023911 0.014578
v -0.019912 -0.023988 0.014578
v -0.019131 -0.023911 0.014578
v 0.020088 -0.023988 0.014578
v 0.019308 -0.023911 0.014578
v -0.018381 -0.023683 0.014578
v -0.017690 -0.023313 0.014578
v 0.018557 -0.023683 0.014578
v 0.017866 -0.023313 0.014578
v -0.017083 -0.022816 0.014578
v 0.017260 -0.022816 0.014578
v -0.016586 -0.022210 0.014578
v 0.016762 -0.022210 0.014578
v -0.016216 -0.021518 0.014578
v 0.016393 -0.021518 0.014578
v -0.015989 -0.020768 0.014578
v 0.016165 -0.020768 0.014578
v -0.015912 -0.019988 0.014578
v 0.016088 -0.019988 0.014578
v 0.017866 -0.016662 0.014578
v 0.017260 -0.017159 0.014578
v 0.016165 -0.019207 0.014578
v 0.016393 -0.018457 0.014578
v 0.016762 -0.017765 0.014578
v 0.023414 -0.022210 0.014578
v 0.022310 -0.016662 0.014578
v 0.022917 -0.017159 0.014578
v 0.023784 -0.021518 0.014578
v 0.024011 -0.020768 0.014578
v 0.023414 -0.017765 0.014578
v 0.024088 -0.019988 0.014578
v 0.024011 -0.019207 0.014578
v 0.023784 -0.018457 0.014578
v 0.010644 0.006107 -0.008373
v 0.000088 0.012201 -0.008373
v -0.010468 0.006107 -0.008373
v -0.010468 -0.006082 -0.008373
v 0.000088 -0.012176 -0.008373
v 0.010644 -0.006082 -0.008373
v 0.019088 0.000012 -0.008373
v 0.009588 0.016467 -0.008373
v -0.009412 0.016467 -0.008373
v -0.018912 0.000012 -0.008373
v -0.009412 -0.016442 -0.008373
v 0.009588 -0.016442 -0.008373
vn 0.0000 1.0000 0.0000
vn 1.0000 0.0000 0.0000
vn 0.0000 -1.0000 0.0000
vn -1.0000 0.0000 0.0000
vn 0.0000 0.0000 -1.0000
vn 0.0001 0.0000 -1.0000
vn -0.0004 0.0000 -1.0000
vn 0.0000 0.0000 1.0000
vn -0.0001 0.0000 1.0000
vn 0.0001 0.0000 1.0000
vn 0.0004 0.0000 1.0000
vn 0.0006 0.0000 1.0000
vn -0.9952 0.0980 0.0000
vn -0.9569 0.2903 0.0000
vn -0.8819 0.4714 0.0000
vn -0.7730 0.6344 0.0000
vn -0.6344 0.7730 0.0000
vn -0.4714 0.8819 0.0000
vn -0.2903 0.9569 0.0000
vn -0.0980 0.9952 0.0000
vn 0.0980 0.9952 0.0000
vn 0.2903 0.9569 0.0000
vn 0.4714 0.8819 0.0000
vn 0.6344 0.7730 0.0000
vn 0.7730 0.6344 0.0000
vn 0.8819 0.4714 0.0000
vn 0.9569 0.2903 0.0000
vn 0.9952 0.0980 0.0000
vn 0.9952 -0.0980 0.0000
vn 0.9569 -0.2903 0.0000
vn 0.8819 -0.4714 0.0000
vn 0.7730 -0.6344 0.0000
vn 0.6344 -0.7730 0.0000
vn 0.4714 -0.8819 0.0000
vn 0.2903 -0.9569 0.0000
vn 0.0980 -0.9952 0.0000
vn -0.0980 -0.9952 0.0000
vn -0.2903 -0.9569 0.0000
vn -0.4714 -0.8819 0.0000
vn -0.6344 -0.7730 0.0000
vn -0.7730 -0.6344 0.0000
vn -0.8819 -0.4714 0.0000
vn -0.9569 -0.2903 0.0000
vn -0.9952 -0.0980 0.0000
vn 0.9948 0.1014 0.0000
vn 0.9948 -0.1014 0.0000
vn -0.5852 0.8109 0.0000
vn -0.9948 -0.1014 0.0000
vn -0.4096 0.9123 0.0000
vn 0.5852 -0.8109 0.0000
vn 0.4096 -0.9123 0.0000
vn 0.4096 0.9123 0.0000
vn 0.5852 0.8109 0.0000
vn -0.4096 -0.9123 0.0000
vn -0.9948 0.1014 0.0000
vn -0.5852 -0.8109 0.0000
usemtl None
s off
f 1//1 2//1 3//1
f 1//1 3//1 4//1
f 4//2 3//2 5//2
f 4//2 5//2 6//2
f 6//3 5//3 7//3
f 6//3 7//3 8//3
f 8//4 7//4 2//4
f 8//4 2//4 1//4
f 9//5 10//5 4//5
f 6//5 11//5 12//5
f 6//5 12//5 13//5
f 14//5 9//5 4//5
f 15//5 14//5 4//5
f 4//5 6//5 13//5
f 4//5 13//5 16//5
f 17//5 15//5 4//5
f 18//5 17//5 4//5
f 4//5 16//5 19//5
f 4//5 19//5 18//5
f 20//5 21//5 22//5
f 22//5 23//5 24//5
f 25//5 26//5 27//5
f 22//5 24//5 25//5
f 28//5 20//5 22//5
f 29//5 28//5 22//5
f 22//5 25//5 27//5
f 30//5 31//5 32//5
f 22//5 27//5 30//5
f 33//5 29//5 22//5
f 34//5 33//5 22//5
f 22//5 30//5 32//5
f 22//5 32//5 35//5
f 36//5 34//5 22//5
f 22//5 35//5 36//5
f 37//5 32//5 31//5
f 37//5 31//5 38//5
f 39//5 37//5 38//5
f 39//5 38//5 40//5
f 41//5 39//5 40//5
f 41//5 40//5 42//5
f 43//5 41//5 42//5
f 43//5 42//5 44//5
f 45//5 43//5 44//5
f 45//5 44//5 46//5
f 47//5 45//5 46//5
f 47//5 46//5 48//5
f 49//5 47//5 48//5
f 49//5 48//5 50//5
f 51//5 49//5 50//5
f 51//5 50//5 52//5
f 51//5 52//5 53//5
f 51//5 53//5 54//5
f 51//5 54//5 55//5
f 51//5 55//5 56//5
f 51//5 56//5 57//5
f 51//5 57//5 58//5
f 59//5 60//5 1//5
f 4//5 10//5 61//5
f 62//5 22//5 21//5
f 4//5 61//5 62//5
f 63//5 59//5 1//5
f 64//5 63//5 1//5
f 62//5 21//5 65//5
f 62//5 65//5 66//5
f 64//5 1//5 4//5
f 58//5 64//5 4//5
f 62//5 66//5 67//5
f 62//5 67//5 68//5
f 51//5 58//5 4//5
f 69//5 51//5 4//5
f 4//5 62//5 68//5
f 4//6 68//6 70//6
f 71//5 69//5 4//5
f 72//5 71//5 4//5
f 4//5 70//5 73//5
f 4//5 73//5 74//5
f 75//5 72//5 4//5
f 76//5 75//5 4//5
f 4//5 74//5 77//5
f 4//5 77//5 78//5
f 79//5 76//5 4//5
f 4//5 78//5 79//5
f 80//5 27//5 26//5
f 80//5 26//5 81//5
f 82//5 80//5 81//5
f 82//5 81//5 83//5
f 84//5 82//5 83//5
f 84//5 83//5 85//5
f 86//5 84//5 85//5
f 86//5 85//5 87//5
f 88//5 86//5 87//5
f 88//5 87//5 89//5
f 90//5 88//5 89//5
f 90//5 89//5 91//5
f 92//5 90//5 91//5
f 92//5 91//5 93//5
f 94//7 92//7 93//7
f 94//5 93//5 95//5
f 94//5 95//5 96//5
f 94//5 96//5 97//5
f 94//5 97//5 98//5
f 94//5 98//5 99//5
f 94//5 99//5 100//5
f 94//5 100//5 101//5
f 102//5 103//5 8//5
f 1//5 60//5 104//5
f 1//5 104//5 105//5
f 106//5 102//5 8//5
f 107//5 106//5 8//5
f 8//5 1//5 105//5
f 8//5 105//5 108//5
f 101//5 107//5 8//5
f 8//5 108//5 94//5
f 101//5 8//5 94//5
f 109//5 24//5 23//5
f 109//5 23//5 110//5
f 111//5 109//5 110//5
f 111//5 110//5 112//5
f 113//5 111//5 112//5
f 113//5 112//5 114//5
f 115//5 113//5 114//5
f 115//5 114//5 116//5
f 117//5 115//5 116//5
f 117//5 116//5 118//5
f 119//5 117//5 118//5
f 119//5 118//5 120//5
f 121//5 119//5 120//5
f 121//5 120//5 122//5
f 123//5 121//5 122//5
f 123//5 122//5 124//5
f 123//5 124//5 125//5
f 123//5 125//5 126//5
f 123//5 126//5 127//5
f 123//5 127//5 128//5
f 123//5 128//5 129//5
f 123//5 129//5 130//5
f 131//5 11//5 6//5
f 8//5 103//5 132//5
f 8//5 132//5 133//5
f 134//5 131//5 6//5
f 135//5 134//5 6//5
f 6//5 8//5 133//5
f 6//5 133//5 136//5
f 130//5 135//5 6//5
f 6//5 136//5 123//5
f 130//5 6//5 123//5
f 137//8 138//8 2//8
f 7//8 139//8 140//8
f 7//8 140//8 141//8
f 142//8 137//8 2//8
f 143//8 142//8 2//8
f 2//8 7//8 141//8
f 2//9 141//9 144//9
f 145//8 143//8 2//8
f 146//8 145//8 2//8
f 2//8 144//8 147//8
f 2//8 147//8 148//8
f 149//8 146//8 2//8
f 150//8 149//8 2//8
f 2//8 148//8 151//8
f 2//8 151//8 152//8
f 153//8 150//8 2//8
f 153//8 2//8 152//8
f 153//8 152//8 154//8
f 155//8 153//8 154//8
f 155//8 154//8 156//8
f 157//8 155//8 156//8
f 157//8 156//8 158//8
f 159//8 160//8 161//8
f 161//8 157//8 158//8
f 161//8 158//8 162//8
f 163//8 159//8 161//8
f 161//8 162//8 164//8
f 164//8 163//8 161//8
f 165//8 166//8 167//8
f 167//8 168//8 3//8
f 2//8 138//8 169//8
f 2//8 169//8 170//8
f 171//8 165//8 167//8
f 172//8 171//8 167//8
f 3//8 2//8 170//8
f 3//8 170//8 173//8
f 174//8 172//8 167//8
f 175//8 174//8 167//8
f 3//8 173//8 176//8
f 3//8 176//8 177//8
f 175//8 167//8 3//8
f 178//8 175//8 3//8
f 3//8 177//8 179//8
f 3//8 179//8 180//8
f 181//8 178//8 3//8
f 182//8 181//8 3//8
f 3//8 180//8 183//8
f 184//8 185//8 186//8
f 3//8 183//8 184//8
f 187//8 182//8 3//8
f 188//8 187//8 3//8
f 184//8 186//8 189//8
f 184//8 189//8 190//8
f 191//8 188//8 3//8
f 192//8 191//8 3//8
f 184//8 190//8 193//8
f 184//8 193//8 194//8
f 195//8 192//8 3//8
f 196//8 195//8 3//8
f 3//8 184//8 194//8
f 3//10 194//10 197//10
f 198//8 196//8 3//8
f 199//8 198//8 3//8
f 3//8 197//8 200//8
f 201//8 199//8 3//8
f 3//8 200//8 201//8
f 202//8 203//8 204//8
f 204//8 205//8 206//8
f 206//8 207//8 208//8
f 209//8 210//8 211//8
f 212//8 167//8 166//8
f 211//8 212//8 166//8
f 211//8 166//8 213//8
f 206//8 208//8 209//8
f 206//8 209//8 211//8
f 214//8 186//8 185//8
f 214//8 185//8 215//8
f 216//8 214//8 215//8
f 216//8 215//8 217//8
f 218//8 216//8 217//8
f 218//8 217//8 219//8
f 220//8 218//8 219//8
f 220//8 219//8 221//8
f 222//8 220//8 221//8
f 222//8 221//8 223//8
f 224//8 222//8 223//8
f 225//8 226//8 227//8
f 224//8 223//8 225//8
f 204//8 206//8 211//8
f 228//8 229//8 202//8
f 204//8 211//8 213//8
f 202//8 204//8 213//8
f 225//8 227//8 228//8
f 202//8 213//8 224//8
f 225//8 228//8 202//8
f 224//8 225//8 202//8
f 208//8 230//8 231//8
f 231//8 232//8 227//8
f 227//8 226//8 233//8
f 227//8 233//8 234//8
f 231//8 227//8 234//8
f 235//8 209//8 208//8
f 231//8 234//8 160//8
f 235//8 208//8 231//8
f 236//8 235//8 231//8
f 231//8 160//8 159//8
f 231//8 159//8 237//8
f 238//8 236//8 231//8
f 231//8 237//8 239//8
f 231//8 239//8 238//8
f 240//8 139//8 7//8
f 5//8 241//8 242//8
f 5//8 242//8 243//8
f 244//8 240//8 7//8
f 245//8 244//8 7//8
f 7//8 5//8 243//8
f 7//8 243//8 246//8
f 247//8 245//8 7//8
f 248//8 247//8 7//8
f 7//8 246//8 249//8
f 7//8 249//8 250//8
f 251//8 248//8 7//8
f 252//8 251//8 7//8
f 7//8 250//8 253//8
f 7//8 253//8 254//8
f 255//11 252//11 7//11
f 255//8 7//8 254//8
f 255//8 254//8 256//8
f 257//8 255//8 256//8
f 257//8 256//8 258//8
f 259//8 257//8 258//8
f 259//8 258//8 260//8
f 261//8 259//8 260//8
f 261//8 260//8 262//8
f 210//8 209//8 263//8
f 263//8 261//8 262//8
f 263//8 262//8 264//8
f 265//8 210//8 263//8
f 266//8 265//8 263//8
f 263//8 264//8 267//8
f 263//8 267//8 268//8
f 269//8 266//8 263//8
f 268//8 269//8 263//8
f 270//8 241//8 5//8
f 3//8 168//8 271//8
f 3//8 271//8 272//8
f 273//8 270//8 5//8
f 274//8 273//8 5//8
f 5//8 3//8 272//8
f 5//12 272//12 275//12
f 276//8 274//8 5//8
f 277//8 276//8 5//8
f 5//8 275//8 278//8
f 5//8 278//8 277//8
f 276//13 19//13 16//13
f 276//13 16//13 274//13
f 274//14 16//14 13//14
f 274//14 13//14 273//14
f 273//15 13//15 12//15
f 273//15 12//15 270//15
f 270//16 12//16 11//16
f 270//16 11//16 241//16
f 11//17 131//17 242//17
f 11//17 242//17 241//17
f 131//18 134//18 243//18
f 131//18 243//18 242//18
f 134//19 135//19 246//19
f 134//19 246//19 243//19
f 135//20 130//20 249//20
f 135//20 249//20 246//20
f 130//21 129//21 250//21
f 130//21 250//21 249//21
f 129//22 128//22 253//22
f 129//22 253//22 250//22
f 128//23 127//23 254//23
f 128//23 254//23 253//23
f 127//24 126//24 256//24
f 127//24 256//24 254//24
f 126//25 125//25 258//25
f 126//25 258//25 256//25
f 125//26 124//26 260//26
f 125//26 260//26 258//26
f 124//27 122//27 262//27
f 124//27 262//27 260//27
f 122//28 120//28 264//28
f 122//28 264//28 262//28
f 120//29 118//29 267//29
f 120//29 267//29 264//29
f 118//30 116//30 268//30
f 118//30 268//30 267//30
f 116//31 114//31 269//31
f 116//31 269//31 268//31
f 114//32 112//32 266//32
f 114//32 266//32 269//32
f 266//33 112//33 110//33
f 266//33 110//33 265//33
f 265//34 110//34 23//34
f 265//34 23//34 210//34
f 210//35 23//35 22//35
f 210//35 22//35 211//35
f 211//36 22//36 62//36
f 211//36 62//36 212//36
f 212//37 62//37 61//37
f 212//37 61//37 167//37
f 167//38 61//38 10//38
f 167//38 10//38 168//38
f 168//39 10//39 9//39
f 168//39 9//39 271//39
f 271//40 9//40 14//40
f 271//40 14//40 272//40
f 272//41 14//41 15//41
f 272//41 15//41 275//41
f 275//42 15//42 17//42
f 275//42 17//42 278//42
f 278//43 17//43 18//43
f 278//43 18//43 277//43
f 277//44 18//44 19//44
f 277//44 19//44 276//44
f 263//13 24//13 109//13
f 263//13 109//13 261//13
f 261//14 109//14 111//14
f 261//14 111//14 259//14
f 259//15 111//15 113//15
f 259//15 113//15 257//15
f 257//16 113//16 115//16
f 257//16 115//16 255//16
f 115//17 117//17 252//17
f 115//17 252//17 255//17
f 117//18 119//18 251//18
f 117//18 251//18 252//18
f 119//19 121//19 248//19
f 119//19 248//19 251//19
f 121//20 123//20 247//20
f 121//20 247//20 248//20
f 123//21 136//21 245//21
f 123//21 245//21 247//21
f 136//22 133//22 244//22
f 136//22 244//22 245//22
f 133//23 132//23 240//23
f 133//23 240//23 244//23
f 132//24 103//24 139//24
f 132//24 139//24 240//24
f 103//25 102//25 140//25
f 103//25 140//25 139//25
f 102//26 106//26 141//26
f 102//26 141//26 140//26
f 106//27 107//27 144//27
f 106//27 144//27 141//27
f 107//28 101//28 147//28
f 107//28 147//28 144//28
f 101//29 100//29 148//29
f 101//29 148//29 147//29
f 100//30 99//30 151//30
f 100//30 151//30 148//30
f 99//31 98//31 152//31
f 99//31 152//31 151//31
f 98//32 97//32 154//32
f 98//32 154//32 152//32
f 154//33 97//33 96//33
f 154//33 96//33 156//33
f 156//34 96//34 95//34
f 156//34 95//34 158//34
f 158//35 95//35 93//35
f 158//35 93//35 162//35
f 162//36 93//36 91//36
f 162//36 91//36 164//36
f 164//37 91//37 89//37
f 164//37 89//37 163//37
f 163//38 89//38 87//38
f 163//38 87//38 159//38
f 159//39 87//39 85//39
f 159//39 85//39 237//39
f 237//40 85//40 83//40
f 237//40 83//40 239//40
f 239//41 83//41 81//41
f 239//41 81//41 238//41
f 238//42 81//42 26//42
f 238//42 26//42 236//42
f 236//43 26//43 25//43
f 236//43 25//43 235//43
f 209//44 235//44 25//44
f 25//44 24//44 263//44
f 209//44 25//44 263//44
f 217//13 48//13 46//13
f 217//13 46//13 219//13
f 219//14 46//14 44//14
f 219//14 44//14 221//14
f 221//15 44//15 42//15
f 221//15 42//15 223//15
f 223//16 42//16 40//16
f 223//16 40//16 225//16
f 40//17 38//17 226//17
f 40//17 226//17 225//17
f 38//18 31//18 233//18
f 38//18 233//18 226//18
f 31//19 30//19 234//19
f 31//19 234//19 233//19
f 30//20 27//20 160//20
f 30//20 160//20 234//20
f 27//21 80//21 161//21
f 27//21 161//21 160//21
f 80//22 82//22 157//22
f 80//22 157//22 161//22
f 82//23 84//23 155//23
f 82//23 155//23 157//23
f 84//24 86//24 153//24
f 84//24 153//24 155//24
f 86//25 88//25 150//25
f 86//25 150//25 153//25
f 88//26 90//26 149//26
f 88//26 149//26 150//26
f 90//27 92//27 146//27
f 90//27 146//27 149//27
f 92//28 94//28 145//28
f 92//28 145//28 146//28
f 94//29 108//29 143//29
f 94//29 143//29 145//29
f 108//30 105//30 142//30
f 108//30 142//30 143//30
f 105//31 104//31 137//31
f 105//31 137//31 142//31
f 104//32 60//32 138//32
f 104//32 138//32 137//32
f 138//33 60//33 59//33
f 138//33 59//33 169//33
f 169//34 59//34 63//34
f 169//34 63//34 170//34
f 170//35 63//35 64//35
f 170//35 64//35 173//35
f 173//36 64//36 58//36
f 173//36 58//36 176//36
f 176//37 58//37 57//37
f 176//37 57//37 177//37
f 177//38 57//38 56//38
f 177//38 56//38 179//38
f 179//39 56//39 55//39
f 179//39 55//39 180//39
f 180//40 55//40 54//40
f 180//40 54//40 183//40
f 183//41 54//41 53//41
f 183//41 53//41 184//41
f 184//42 53//42 52//42
f 184//42 52//42 185//42
f 185//43 52//43 50//43
f 185//43 50//43 215//43
f 215//44 50//44 48//44
f 215//44 48//44 217//44
f 182//13 77//13 74//13
f 182//13 74//13 181//13
f 181//14 74//14 73//14
f 181//14 73//14 178//14
f 178//15 73//15 70//15
f 178//15 70//15 175//15
f 175//16 70//16 68//16
f 175//16 68//16 174//16
f 68//17 67//17 172//17
f 68//17 172//17 174//17
f 67//18 66//18 171//18
f 67//18 171//18 172//18
f 66//19 65//19 165//19
f 66//19 165//19 171//19
f 65//20 21//20 166//20
f 65//20 166//20 165//20
f 21//21 20//21 213//21
f 21//21 213//21 166//21
f 20//22 28//22 224//22
f 20//22 224//22 213//22
f 28//23 29//23 222//23
f 28//23 222//23 224//23
f 29//24 33//24 220//24
f 29//24 220//24 222//24
f 33//25 34//25 218//25
f 33//25 218//25 220//25
f 34//26 36//26 216//26
f 34//26 216//26 218//26
f 36//27 35//27 214//27
f 36//27 214//27 216//27
f 35//28 32//28 186//28
f 35//28 186//28 214//28
f 32//29 37//29 189//29
f 32//29 189//29 186//29
f 37//30 39//30 190//30
f 37//30 190//30 189//30
f 39//31 41//31 193//31
f 39//31 193//31 190//31
f 41//32 43//32 194//32
f 41//32 194//32 193//32
f 194//33 43//33 45//33
f 194//33 45//33 197//33
f 197//34 45//34 47//34
f 197//34 47//34 200//34
f 200//35 47//35 49//35
f 200//35 49//35 201//35
f 201//36 49//36 51//36
f 201//36 51//36 199//36
f 199//37 51//37 69//37
f 199//37 69//37 198//37
f 198//38 69//38 71//38
f 198//38 71//38 196//38
f 196//39 71//39 72//39
f 196//39 72//39 195//39
f 195//40 72//40 75//40
f 195//40 75//40 192//40
f 192//41 75//41 76//41
f 192//41 76//41 191//41
f 191//42 76//42 79//42
f 191//42 79//42 188//42
f 188//43 79//43 78//43
f 188//43 78//43 187//43
f 187//44 78//44 77//44
f 187//44 77//44 182//44
f 279//8 280//8 281//8
f 281//8 282//8 283//8
f 283//8 284//8 279//8
f 281//8 283//8 279//8
f 279//8 284//8 285//8
f 286//8 280//8 279//8
f 287//8 281//8 280//8
f 288//8 282//8 281//8
f 289//8 283//8 282//8
f 290//8 284//8 283//8
f 289//45 282//45 230//45
f 289//45 230//45 208//45
f 232//46 281//46 287//46
f 287//46 228//46 227//46
f 287//46 227//46 232//46
f 285//47 284//47 205//47
f 285//47 205//47 204//47
f 202//48 286//48 279//48
f 202//48 279//48 203//48
f 283//49 289//49 208//49
f 283//49 208//49 207//49
f 231//50 288//50 281//50
f 231//50 281//50 232//50
f 229//51 280//51 286//51
f 229//51 286//51 202//51
f 290//52 283//52 207//52
f 290//52 207//52 206//52
f 282//53 288//53 231//53
f 282//53 231//53 230//53
f 228//54 287//54 280//54
f 228//54 280//54 229//54
f 205//55 284//55 290//55
f 205//55 290//55 206//55
f 203//56 279//56 285//56
f 203//56 285//56 204//56
