# Blender v3.5.1 OBJ File: ''
# www.blender.org
mtllib hole_collision_1.mtl
o hole_collision_1_Cube.011
v 0.019587 0.000370 -0.015367
v 0.019587 0.000370 0.014578
v 0.010640 -0.006083 -0.015367
v 0.010640 -0.006083 0.014578
v 0.020320 -0.017213 -0.015367
v 0.020321 -0.017213 0.014578
v 0.009496 -0.017358 -0.015367
v 0.009496 -0.017358 0.014578
vt 0.375000 0.000000
vt 0.625000 0.000000
vt 0.625000 0.250000
vt 0.375000 0.250000
vt 0.625000 0.500000
vt 0.375000 0.500000
vt 0.625000 0.750000
vt 0.375000 0.750000
vt 0.625000 1.000000
vt 0.375000 1.000000
vt 0.125000 0.500000
vt 0.125000 0.750000
vt 0.875000 0.500000
vt 0.875000 0.750000
vn 0.5850 -0.8111 0.0000
vn 0.9949 -0.1010 0.0000
vn -0.0134 0.9999 0.0000
vn -0.9991 -0.0417 0.0000
vn 0.0000 0.0000 1.0000
vn 0.0000 0.0000 -1.0000
usemtl None
s off
f 1/1/1 2/2/1 4/3/1 3/4/1
f 3/4/2 4/3/2 8/5/2 7/6/2
f 7/6/3 8/5/3 6/7/3 5/8/3
f 5/8/4 6/7/4 2/9/4 1/10/4
f 3/11/5 7/6/5 5/8/5 1/12/5
f 8/5/6 4/13/6 2/14/6 6/7/6
