# Blender v3.5.1 OBJ File: ''
# www.blender.org
mtllib peg_collision_3.mtl
o Cube.002_Cube.006
v -0.010217 0.005904 0.004343
v -0.010217 0.005904 0.070393
v -0.009197 0.015924 0.004343
v -0.009197 0.015924 0.070393
v -0.005106 0.008826 0.004343
v -0.005106 0.008826 0.070393
v -0.000003 0.011796 0.004343
v -0.000003 0.011796 0.070393
vt 0.375000 0.000000
vt 0.625000 0.000000
vt 0.625000 0.250000
vt 0.375000 0.250000
vt 0.625000 0.500000
vt 0.375000 0.500000
vt 0.625000 0.750000
vt 0.375000 0.750000
vt 0.625000 1.000000
vt 0.375000 1.000000
vt 0.125000 0.500000
vt 0.125000 0.750000
vt 0.875000 0.500000
vt 0.875000 0.750000
vn -0.9949 0.1013 0.0000
vn 0.4096 0.9123 0.0000
vn 0.5030 -0.8643 0.0000
vn 0.4963 -0.8681 0.0000
vn 0.0000 0.0000 -1.0000
vn 0.0000 0.0000 1.0000
usemtl None
s off
f 1/1/1 2/2/1 4/3/1 3/4/1
f 3/4/2 4/3/2 8/5/2 7/6/2
f 7/6/3 8/5/3 6/7/3 5/8/3
f 5/8/4 6/7/4 2/9/4 1/10/4
f 3/11/5 7/6/5 5/8/5 1/12/5
f 8/5/6 4/13/6 2/14/6 6/7/6
