<?xml version="1.0" encoding="UTF-8"?>
<svg id="Layer_1" data-name="Layer 1" xmlns="http://www.w3.org/2000/svg" width="183.915" height="111.182" viewBox="0 0 183.915 111.182">
  <g id="_05_04_23" data-name="05/04/23">
    <g id="Group-6-Copy">
      <g id="Keyboard-icon">
        <path id="Rectangle" d="m10.8496,14.8502C43.4049,6.8412,75.8581,2.4784,109.3634,1.6038c6.7743-.0712,12.0277,4.5901,11.726,10.1819-.7611,14.1057-1.5222,28.2113-2.2833,42.3169-.3017,5.5918-5.0056,10.0206-10.5001,10.0784-27.3434.828-53.3114,4.3199-79.9023,10.744-5.3146,1.3957-11.0217-1.6333-12.7901-6.9467-4.4611-13.4035-8.9221-26.8069-13.3832-40.2104-1.7685-5.3134,2.0667-11.197,8.6193-12.9178Z" style="fill: #f846d3; fill-rule: evenodd;"/>
        <g id="_" data-name="􀇳">
          <path id="Shape" d="m28.4384,75.547c26.6447-6.4469,52.6591-9.9424,80.0605-10.7576,3.5818-.0354,6.3303-.9675,8.3028-2.8598,1.9725-1.8923,3.0935-4.6102,3.3024-8.1787.8302-14.1818,1.6604-28.3637,2.4906-42.5455.209-3.5691-.7556-6.3447-2.9529-8.2986C117.4444.9528,114.0903-.0426,109.6428.0014,75.829.8653,43.083,5.2643,10.2314,13.3589c-4.2732,1.1242-7.235,2.9522-8.8461,5.3911-1.6111,2.4388-1.8046,5.3831-.6443,8.8212,4.5428,13.4602,9.0855,26.9204,13.6282,40.3806,1.161,3.4402,2.9629,5.7795,5.3548,7.058,2.3919,1.2785,5.2731,1.4425,8.7145.5371Zm-.4768-2.0741c-2.8643.7523-5.242.6175-7.1807-.4371-1.9386-1.0545-3.3901-2.9846-4.3209-5.8164-4.412-13.4227-8.8239-26.8455-13.2358-40.2682-.9307-2.8314-.7672-5.2383.5325-7.2131,1.2996-1.9748,3.7151-3.4543,7.221-4.3752C43.5349,7.3525,75.9885,2.9946,109.4962,2.1308c3.4925-.0355,6.1808.7517,8.0227,2.3138,1.8419,1.5621,2.6676,3.8413,2.517,6.8179-.7139,14.1112-1.4279,28.2223-2.1418,42.3335-.1506,2.977-1.0696,5.2211-2.7162,6.7496-1.6466,1.5285-3.8772,2.2881-6.7304,2.3171-27.5443.8253-53.7,4.3384-80.4858,10.8102Zm-6.6568-40.7145c1.3727-.3412,2.0598-.5086,3.4352-.8369,1.2917-.3083,1.7911-1.0342,1.496-2.188-.3039-1.1879-.4558-1.7819-.7596-2.9698-.2957-1.1559-1.1042-1.5816-2.4235-1.2667-1.4048.3353-2.1066.5063-3.5086.8548-1.3141.3266-1.8081,1.0696-1.4844,2.2188.3326,1.1809.499,1.7713.8316,2.9523.3231,1.1469,1.1268,1.5554,2.4134,1.2356Zm15.4889-3.5081c1.3845-.2833,2.0773-.4217,3.4641-.6921,1.2998-.2534,1.8328-.9582,1.5972-2.1245-.2426-1.2009-.364-1.8013-.6066-3.0021-.2361-1.1685-1.0189-1.6285-2.3465-1.3697-1.4164.2762-2.1241.4176-3.5381.7069-1.3582.278-1.904,1.0038-1.6395,2.1666.2719,1.195.4078,1.7925.6796,2.9875.264,1.1606,1.0599,1.5995,2.3897,1.3274Zm15.6108-2.8566c1.3749-.222,2.0629-.3299,3.4397-.5394,1.3412-.204,1.9247-.8888,1.749-2.0651-.1809-1.2112-.2714-1.8168-.4524-3.028-.1761-1.1786-.9499-1.6692-2.3197-1.4608-1.4062.2139-2.1089.3241-3.5132.5509-1.368.2209-1.9487.9239-1.744,2.098.2104,1.2066.3156,1.8099.5259,3.0165.2043,1.1719.9753,1.6443,2.3147,1.428Zm15.6631-2.1963c1.4025-.167,2.1041-.2472,3.5081-.4012,1.3185-.1446,1.9205-.8036,1.8048-1.9875-.1191-1.219-.1786-1.8284-.2977-3.0474-.1159-1.1861-.8477-1.7106-2.1944-1.563-1.434.1572-2.1506.2392-3.583.4097-1.3426.1599-1.9409.8365-1.7965,2.0193.1485,1.2156.2227,1.8234.3712,3.039.1442,1.1806.8729,1.6875,2.1874,1.531Zm15.7925-1.5469c1.3906-.107,2.0862-.1573,3.4779-.2515,1.3517-.0915,2.0004-.7263,1.9452-1.9152-.0568-1.2242-.0851-1.8362-.1419-3.0604-.0552-1.1912-.7736-1.7456-2.1541-1.6521-1.4214.0962-2.1319.1476-3.5522.2569-1.382.1063-2.0305.7596-1.9463,1.9487.0865,1.222.1297,1.833.2162,3.0551.084,1.1868.802,1.7228,2.1552,1.6187Zm15.8526-.887c1.3934-.0488,2.0904-.07,3.4845-.1061,1.3581-.0351,2.0402-.6429,2.0459-1.8344.0058-1.2268.0087-1.8401.0145-3.0669.0056-1.1937-.6854-1.7782-2.0725-1.7423-1.4239.0368-2.1357.0585-3.5589.1083-1.3864.0486-2.0675.6748-2.0442,1.8676.024,1.2258.036,1.8388.06,3.0646.0233,1.1906.7133,1.7566,2.0707,1.7091ZM24.9933,46.181c1.3113-.3259,1.9676-.4858,3.2816-.7995,1.2339-.2945,1.7074-1.002,1.4183-2.1321-.3075-1.2021-.4612-1.8032-.7687-3.0052-.2891-1.1301-1.0653-1.5496-2.3266-1.2485-1.3431.3206-2.014.4841-3.3545.8172-1.2563.3123-1.7252,1.0351-1.4088,2.1585.3366,1.195.5049,1.7925.8415,2.9875.3165,1.1234,1.0881,1.5275,2.3172,1.2221Zm14.7961-3.3512c1.3225-.2706,1.9844-.4029,3.3092-.6612,1.2417-.2421,1.748-.9295,1.5172-2.0719-.2455-1.2152-.3683-1.8228-.6138-3.0379-.2308-1.1424-.9818-1.5948-2.251-1.3474-1.3542.264-2.0308.3992-3.3827.6759-1.2986.2657-1.8175.9723-1.5589,2.1091.2751,1.2093.4126,1.8139.6877,3.0232.2586,1.1368,1.0221,1.5702,2.2924,1.3102Zm14.9125-2.7288c1.3134-.2121,1.9706-.3152,3.2859-.5152,1.2812-.1949,1.8365-.8633,1.6643-2.0156-.1831-1.2257-.2747-1.8385-.4578-3.0642-.1721-1.1523-.9138-1.634-2.2235-1.4348-1.3445.2045-2.0163.3098-3.3589.5267-1.3079.2112-1.8609.896-1.6608,2.0439.2129,1.221.3193,1.8315.5322,3.0525.2001,1.1479.9391,1.6134,2.2186,1.4067Zm14.9625-2.098c1.3397-.1595,2.01-.2362,3.3512-.3832,1.2595-.1381,1.8332-.7821,1.7199-1.9417-.1205-1.2335-.1808-1.8503-.3013-3.0838-.1133-1.1596-.8143-1.6739-2.1017-1.5327-1.371.1503-2.0562.2287-3.4257.3918-1.2836.1528-1.8541.8125-1.7129,1.969.1503,1.2301.2254,1.8452.3756,3.0753.1413,1.1564.8391,1.655,2.0948,1.5055Zm15.0861-1.4777c1.3284-.1022,1.9929-.1502,3.3224-.2402,1.2912-.0874,1.9102-.7083,1.8562-1.8728-.0574-1.2388-.0862-1.8582-.1436-3.0969-.054-1.1646-.7414-1.7075-2.0612-1.6181-1.359.092-2.0382.1411-3.3962.2456-1.3213.1017-1.9403.7391-1.8581,1.9016.0875,1.2366.1312,1.8549.2187,3.0915.0823,1.1625.7692,1.6889,2.0618,1.5895Zm15.1435-.8473c1.3311-.0466,1.9969-.0669,3.3286-.1013,1.2974-.0335,1.949-.6286,1.9546-1.7957.0059-1.2414.0088-1.8621.0146-3.1035.0055-1.167-.6551-1.7388-1.9813-1.7045-1.3614.0352-2.0419.0559-3.4026.1036-1.3255.0464-1.9765.6581-1.9536,1.8242.0243,1.2405.0364,1.8607.0607,3.1012.0229,1.1662.6823,1.7214,1.979,1.6759ZM28.6924,59.6421c1.2497-.3106,1.8752-.463,3.1275-.7619,1.176-.2807,1.6171-.9944,1.3214-2.1503-.3039-1.1879-.4558-1.7819-.7596-2.9698-.2951-1.1537-1.0454-1.5917-2.249-1.3044-1.2816.3059-1.9218.4619-3.2008.7798-1.1988.298-1.6356,1.0251-1.3126,2.172.3326,1.1809.499,1.7713.8316,2.9523.3237,1.1491,1.0702,1.5734,2.2415,1.2823Zm14.0937-3.1923c15.3313-2.8505,30.4944-4.9058,46.0313-6.2395,1.2254-.0829,1.8111-.7126,1.7561-1.8988-.057-1.2301-.0856-1.8452-.1426-3.0753-.0549-1.184-.7098-1.7385-1.964-1.6536-15.8201,1.0001-31.5771,3.2689-47.1107,6.3858-1.2339.2525-1.7185.9616-1.4556,2.1174.2732,1.2008.4098,1.8012.6829,3.0021.2634,1.158.997,1.6087,2.2027,1.362Zm57.2896-6.8175c1.2686-.0444,1.9031-.0638,3.1724-.0966,1.2364-.032,1.8577-.6398,1.8633-1.8335.0058-1.2268.0087-1.8401.0145-3.0669.0056-1.1914-.6245-1.7759-1.89-1.7432-1.299.0336-1.9484.0534-3.2468.0988-1.2648.0443-1.8852.6668-1.8619,1.8574.024,1.2259.036,1.8388.06,3.0646.0233,1.1928.6526,1.7626,1.8884,1.7193Z" style="fill: #fff;"/>
        </g>
      </g>
    </g>
  </g>
  <g id="Group-5">
    <g id="_-2" data-name="􀛹">
      <path id="Shape-2" data-name="Shape" d="m90.2878,99.6514c1.7276.3753,3.4131.3027,5.0993-.2233,1.6862-.526,3.2248-1.5619,4.6542-3.1034,2.8949-3.1139,4.4413-4.6864,7.6504-7.85.6285-.6228,1.2429-1.0426,1.8369-1.259.594-.2164,1.2406-.2684,1.9369-.1557,12.6589,2.0481,25.3488,3.9026,38.0644,5.5628.6994.0913,1.304.3261,1.8113.7034.5072.3773.987.9567,1.4333,1.7358,2.1666,3.9479,3.1966,5.8961,5.0755,9.7057.9265,1.8848,2.097,3.3159,3.5501,4.3005s3.0411,1.5355,4.8036,1.6699c2.3602.18,4.616-.1782,6.7896-1.0401,2.1736-.8619,4.1192-2.1448,5.792-3.845,1.6728-1.7002,2.9415-3.7184,3.7284-6.0864.5301-1.5951.8652-3.3662.978-5.3282.1128-1.962.0766-4.1864-.145-6.6906-.2058-2.582-.6195-5.4308-1.2696-8.5664-.65-3.1355-1.4805-6.3662-2.4766-9.6937-.9961-3.3275-2.0979-6.5603-3.2654-9.686-.8731-2.2545-1.7077-4.1105-2.4803-5.5552s-1.7811-2.6874-3.0138-3.7221c-1.2328-1.0347-2.9816-2.0528-5.2402-3.041-3.6834-1.6161-7.8857-3.0924-12.6249-4.3819-4.7392-1.2894-9.7821-2.342-15.1687-3.1309-5.4098-.7923-10.5488-1.2303-15.4474-1.3524-4.8986-.1221-9.3529.0869-13.3672.5774-2.4233.3019-4.3783.7774-5.8553,1.4157-1.477.6383-2.8042,1.5399-3.9692,2.7022-1.165,1.1623-2.4892,2.7027-3.9461,4.6164-2.0362,2.6594-4.0289,5.4412-5.9359,8.3456-1.907,2.9045-3.6218,5.7643-5.1308,8.5858-1.509,2.8215-2.7283,5.4336-3.6901,7.846-.9304,2.3372-1.6031,4.4593-2.058,6.3726-.4548,1.9133-.6421,3.7072-.5923,5.3881.0739,2.4953.7153,4.7944,1.8405,6.9054,1.1251,2.111,2.62,3.8974,4.4437,5.3429s3.8763,2.4327,6.1891,2.9351Zm13.1074-38.6875c.0414-.2589.171-.4672.3885-.625.2175-.1578.473-.2174.7663-.1783,4.1755.5562,6.2626.839,10.4354,1.4141.6785-4.3222,1.0457-6.4795,1.836-10.7867.0527-.2869.189-.517.4086-.6906.2195-.1735.4602-.2437.7219-.2103.2613.0333.4713.161.6305.3833.1591.2222.2129.4772.1613.7648-.7755,4.3167-1.1381,6.4784-1.8129,10.8085,4.1595.5768,6.2386.87,10.3954,1.4656.2986.0428.529.1714.6914.3858.1625.2144.224.4541.1846.719-.0399.2681-.169.4826-.3874.6435-.2184.1609-.477.2197-.7758.1767-4.1598-.5986-6.2403-.8942-10.4023-1.478-.6571,4.3322-.9605,6.5017-1.5168,10.8459-.0371.2898-.1665.5197-.3882.6896-.2217.1699-.464.235-.7274.1954-.2638-.0396-.4756-.1729-.6354-.3998-.1598-.2269-.2217-.4849-.1852-.7743.5465-4.3383.8479-6.5045,1.5066-10.8291-4.1751-.5827-6.2633-.8704-10.4406-1.4381-.2934-.0399-.5198-.1647-.6787-.3744s-.2176-.4454-.1757-.7075Zm36.4642,11.2125c.1959-1.321.8075-2.3533,1.8359-3.0948,1.0284-.7415,2.1777-1.0166,3.4505-.8258,1.2992.1948,2.3366.7977,3.1103,1.8051.7737,1.0074,1.0637,2.1675.8651,3.4816-.1951,1.2902-.8132,2.3029-1.8483,3.0413-1.0351.7385-2.2012,1.0149-3.4977.8269-1.2701-.1842-2.2865-.7775-3.0535-1.7817-.767-1.0042-1.0546-2.1556-.8622-3.4526Zm14.3105-9.9923c.1619-1.3161.7371-2.3397,1.7247-3.0661.9875-.7264,2.1034-.9839,3.3581-.7727,1.2803.2154,2.32.8351,3.1201,1.8526.8001,1.0175,1.1342,2.1779.9886,3.4823-.1403,1.2567-.7146,2.2468-1.7199,2.9768-1.0053.7299-2.1605.9941-3.4567.7901-1.2702-.1999-2.296-.808-3.0786-1.829-.7827-1.0209-1.0922-2.166-.9362-3.4339Z" style="fill: #f846d3;"/>
    </g>
    <g id="_-3" data-name="􀛸">
      <path id="Shape-3" data-name="Shape" d="m77.2887,84.3631c.0816,2.582.7527,4.9591,1.9222,7.14,1.1695,2.1809,2.7219,4.0276,4.6127,5.5224,1.8908,1.4948,4.0129,2.5172,6.4,3.0389,1.7873.3906,3.5274.32,5.2663-.2175,1.7389-.5374,3.317-1.6002,4.7742-3.1831,2.8495-3.0704,4.3705-4.6205,7.5268-7.7388.6103-.6047,1.2134-1.013,1.8036-1.2246.5901-.2115,1.2191-.2634,1.8841-.1556,12.5306,2.0326,25.0925,3.8696,37.6804,5.51.6684.0871,1.2563.3169,1.7609.6886.5047.3716.9748.9367,1.4049,1.6932,2.1308,3.8912,3.1439,5.8118,4.9943,9.5692.9431,1.9338,2.1464,3.4033,3.6497,4.4153,1.5033,1.012,3.1459,1.5776,4.9702,1.7151,2.4369.1837,4.7673-.1879,7.0155-1.0782,2.2483-.8902,4.2646-2.2149,6.0009-3.9703,1.7362-1.7553,3.0553-3.8412,3.8729-6.2916.5443-1.6313.8918-3.4337,1.0152-5.4222.1235-1.9885.0912-4.2178-.1298-6.7049-.2072-2.5802-.6227-5.4271-1.2753-8.5609-.6525-3.1338-1.4837-6.3601-2.4785-9.6805-.9948-3.3204-2.0941-6.5333-3.2568-9.6257-.8925-2.3034-1.751-4.2135-2.5511-5.7173-.8001-1.5038-1.8433-2.8015-3.1171-3.8866-1.2738-1.0852-3.0788-2.1449-5.4082-3.1643-3.63-1.5927-7.8035-3.0653-12.5364-4.3695-4.7329-1.3042-9.826-2.3744-15.3218-3.1782-5.5139-.8063-10.7064-1.2402-15.6089-1.3454-4.9025-.1051-9.3288.1099-13.281.5947-2.5057.3116-4.5293.8108-6.0605,1.4858-1.5311.675-2.9067,1.6192-4.113,2.8301-1.2063,1.2109-2.5713,2.7956-4.0672,4.749-2.0179,2.6282-4.0006,5.3906-5.9045,8.2872-1.9039,2.8966-3.6194,5.7504-5.1326,8.5675-1.5132,2.8172-2.7314,5.4255-3.6872,7.8353-.9243,2.3196-1.5937,4.4463-2.0448,6.3868-.4511,1.9405-.6343,3.767-.5799,5.4858Zm2.6856.7572c-.0279-1.2109.0989-2.6298.4091-4.2588.3102-1.6289.948-3.8291,2.0205-6.6095.8685-2.2672,2.0239-4.8171,3.5145-7.6596,1.4906-2.8424,3.1996-5.7691,5.1209-8.7851,1.9214-3.016,3.9102-5.9093,5.9233-8.6792.9611-1.2985,1.918-2.4734,2.8625-3.5243.9445-1.0509,2.0824-1.9336,3.4036-2.6479,1.3212-.7143,3.024-1.1886,5.1019-1.4138,3.7887-.4659,8.1742-.6653,13.1533-.5484,4.9791.117,10.2568.5648,15.8618,1.3846,5.5797.8159,10.752,1.8961,15.5561,3.2097,4.8041,1.3137,8.9489,2.7605,12.4456,4.2917,1.9437.8332,3.4468,1.7813,4.5052,2.8339,1.0584,1.0526,1.8899,2.2182,2.4848,3.4938.5949,1.2756,1.1741,2.6752,1.73,4.1957,1.1684,3.2364,2.2589,6.5799,3.2289,10.0183.9701,3.4385,1.7595,6.7301,2.3609,9.8784.6015,3.1483.9755,5.9221,1.1653,8.3439.2315,2.971.2127,5.2617.0434,6.9113-.1692,1.6495-.454,3.0454-.8275,4.1976-.9302,2.8695-2.6981,5.079-5.1527,6.679-2.4545,1.6-5.1175,2.3108-8.0003,2.074-3.2208-.2646-5.5685-2.0455-7.2909-5.4247-1.8612-3.6981-2.8752-5.5881-5.0018-9.4177-.6167-1.0544-1.3068-1.8524-2.0599-2.3899-.7531-.5376-1.7168-.8849-2.8862-1.0406-12.632-1.6817-25.2421-3.5257-37.8268-5.5314-1.1654-.1857-2.1884-.1289-3.0639.1705-.8755.2994-1.756.8679-2.6307,1.7046-3.1341,3.0605-4.6469,4.5811-7.4893,7.5917-1.286,1.34-2.6433,2.2747-4.1001,2.8019-1.4568.5273-2.934.6268-4.4651.303-2.8299-.5985-5.1779-2.0421-7.0717-4.278-1.8938-2.2359-2.9551-4.8592-3.0247-7.8748Zm23.1022-24.1838c-.0672.4199.0145.7821.244,1.087s.5696.4883,1.0195.5498c3.8835.5309,5.8249.7993,9.7066,1.3422-.6008,3.9736-.8769,5.9638-1.3802,9.9492-.0554.4387.0311.8187.2584,1.14.2273.3213.5477.5133.9612.5754.4139.0622.7741-.0274,1.0814-.2691.3073-.2417.4893-.5825.5461-1.0221.516-3.9935.7949-5.9883,1.3943-9.972,3.8339.5398,5.7504.8126,9.5825,1.3641.471.0678.8676-.0149,1.1899-.2483s.5152-.565.5792-.9949c.0618-.4152-.0279-.7783-.2689-1.089-.241-.3107-.5966-.4997-1.0671-.567-3.828-.5471-5.7426-.8165-9.573-1.3469.6235-3.9808.9561-5.9684,1.663-9.9382.0778-.437.007-.8115-.2123-1.1233-.2193-.3118-.5338-.4937-.9445-.546-.4103-.0523-.7711.0435-1.0827.2869-.3116.2433-.5081.5826-.588,1.0181-.7264,3.9569-1.0652,5.9386-1.6942,9.9086-3.8785-.5319-5.8184-.7935-9.6995-1.3082-.4496-.0596-.8319.0249-1.1463.2531-.3144.2282-.5045.5448-.5694.9505Zm55.0667,6.7251c1.3398.2106,2.5394-.0666,3.5889-.8287,1.0495-.7621,1.6499-1.8014,1.7973-3.1248.1516-1.3606-.1973-2.5756-1.0316-3.6461-.8343-1.0705-1.9123-1.7207-3.2349-1.9436-1.3343-.2249-2.5128.0458-3.5474.812-1.0345.7663-1.6372,1.8388-1.8066,3.2121-.1647,1.3358.1586,2.5375.9781,3.6037.8196,1.0662,1.9044,1.7029,3.2561,1.9154Zm-14.1735,9.9209c1.3585.1969,2.5787-.0944,3.66-.871,1.0813-.7766,1.7275-1.839,1.9319-3.191.2071-1.3702-.0954-2.5846-.9018-3.6447-.8064-1.0601-1.8914-1.6943-3.2526-1.8988-1.3356-.2006-2.5402.09-3.6167.8722-1.0764.7822-1.7162,1.8633-1.9205,3.2412-.2015,1.3596.0988,2.5674.9004,3.6218.8016,1.0544,1.8664,1.6772,3.1993,1.8703Z" style="fill: #fff;"/>
    </g>
  </g>
  <rect x="94.1198" y="11.5276" width="15.5271" height="12.6975" style="fill: #f846d3;"/>
  <path d="m103.0926,21.7618c-3.0394-.1664-4.5643-.1666-7.6039,0-.9972.0546-1.8332-.7256-1.8686-1.7716-.0402-1.1865-.0603-1.7797-.1005-2.9661-.0355-1.046.7761-1.9643,1.814-2.0211,3.1635-.1732,4.7507-.1735,7.9142-.0003,1.0379.0569,1.8494.9754,1.814,2.0213-.0402,1.1865-.0603,1.7796-.1005,2.9661-.0354,1.046-.8715,1.8262-1.8687,1.7716Z" style="fill: #fff;"/>
  <rect x="18.709" y="36.5881" width="12.4226" height="10.7007" style="fill: #f846d3;"/>
  <path d="m31.8733,44.666c-2.9999.5163-4.4863.8566-7.412,1.6974-.9598.2758-1.9489-.298-2.2169-1.3097-.3041-1.1476-.4561-1.7213-.7601-2.8688-.268-1.0117.318-2.088,1.317-2.375,3.045-.875,4.5921-1.2296,7.7144-1.767,1.0244-.1763,2.0205.5379,2.2194,1.5654.2257,1.1655.3385,1.7482.5642,2.9137.199,1.0275-.4418,1.9747-1.426,2.1441Z" style="fill: #fff;"/>
  <path d="m103.0765,60.9187c-.0672.4199.0145.7821.244,1.087s.5696.4883,1.0195.5498c2.7729.379,4.5557.6243,6.7616.9312,1.6192.2253,2.7438,1.7273,2.5082,3.345-.3346,2.2974-.5797,4.1354-.9434,7.0152-.0554.4387.0311.8187.2584,1.14.2273.3213.5477.5133.9612.5754.4139.0622.7741-.0274,1.0814-.2691.3073-.2417.4893-.5825.5461-1.0221.3751-2.9028.6249-4.7496.9636-7.0718.2339-1.6039,1.7219-2.7187,3.3268-2.4915,2.184.3091,3.945.561,6.6865.9555.471.0678.8676-.0149,1.1899-.2483s.5152-.565.5792-.9949c.0618-.4152-.0279-.7783-.2689-1.089-.241-.3107-.5966-.4997-1.0671-.567-2.7052-.3866-4.4548-.6346-6.6003-.9339-1.6344-.228-2.7642-1.756-2.5012-3.3851.3685-2.2824.6832-4.1119,1.1914-6.9661.0778-.437.007-.8115-.2123-1.1233-.2193-.3118-.5338-.4937-.9445-.546-.4103-.0523-.7711.0435-1.0827.2869-.3116.2433-.5081.5826-.588,1.0181-.532,2.8981-.8561,4.7366-1.2386,7.0728-.2579,1.5752-1.7245,2.6613-3.3061,2.446-2.247-.3059-4.0393-.5459-6.849-.9185-.4496-.0596-.8319.0249-1.1463.2531-.3144.2282-.5045.5448-.5694.9505Z" style="fill: #fff;"/>
  <circle cx="144.6328" cy="72.7788" r="3.2271" style="fill: #f846d3;"/>
  <circle cx="158.7625" cy="62.6887" r="3.2271" style="fill: #f846d3;"/>
</svg>