<?xml version="1.0" encoding="UTF-8"?>
<svg id="Layer_1" data-name="Layer 1" xmlns="http://www.w3.org/2000/svg" width="162" height="116.4909" viewBox="0 0 162 116.4909">
  <g id="v1_notInSquare" data-name="v1 notInSquare">
    <g id="handsGraphic3-Copy-4">
      <g id="Group-11">
        <g>
          <g id="Group">
            <g id="Path">
              <path d="m81.05,49.0709c-.0901.24-.23.42-.42.56-.04.03-.1.0699-.15.1h-.01c-.5801.33-1.4099.3-2.22.16h-.01c-1.21-.22-2.3301-.7-2.3301-.7,0,0-8.1599-4.39-14.96-3.77-6.8101.63-10.76.81-13.98,2.96-3.1499,2.04-8.53-.27-13.28-.51-.24-.02-.47-.03-.7-.03h-.0901s-.0399.24-.1099.67c-.7001,4.28-4.52,27.85-5.0801,36.0699-.59,8.4-.78,29.01-.8101,31.91h-7.95c-10.46,0-18.95-8.49-18.95-18.95v-13.48L18.12,28.9409s.5399-2.06,4.48-5.2c7.61-6.09,29.65-18.37,29.65-18.37l4.3101-3.04s2.7699-2.24,6.8899-1.62c4.13.63,12.64,2.15,12.64,2.15,0,0,.4501-.09.89,1.44.38,1.3,1.75,5.68,2.3,7.2.1.26.1699.44.21.5.13.32.52.64.75,1.49.09.35.1499.8.1499,1.38,0,.87,0,2.68-.0499,4.51-.0199,1.17-.0699,2.35-.15,3.29v.01c-.03.31-.0599.59-.09.84-.01.03-.01.07-.01.1-.0699.46-.15.79-.24.93-.01.02-.0299.04-.0399.06-.7101.75-4.8401.9-6.3201-6.96,0,0-4.01-1.73-6.02-2.95-.28-.16-.52-.3199-.7-.46l-.4.38-10.9801,10.2c-.3599.35-.72.62-1.1599.89,0,0,3.22,9.95,4.12,10.84.89.9,2.24.54,2.24.54,0,0,6.4501.27,10.03,1.88,3.38,1.51,8.33,3.43,10.0299,7.24.1001.24.2001.49.28.74.05.16.0901.3101.1201.45.1799.74.1599,1.28,0,1.67Z" style="fill: #f846d3; fill-rule: evenodd;"/>
            </g>
            <g id="Path-2" data-name="Path">
              <path d="m80.2974,13.5042c-.1074,0-.2158-.0249-.3174-.0776l-12.8125-6.6299c-.2695-.1597-.6602-.1763-.9473-.062l-16.0459,6.0063c-.3564.1382-.7588-.04-.8965-.3984-.1377-.3574.041-.7588.3984-.8965l2.3291-.896,13.7148-5.1094c.6787-.2729,1.5186-.2188,2.123.145l12.7734,6.6084c.3408.1763.4736.5947.2979.9351-.123.2383-.3662.375-.6172.375Z" style="fill: #fff;"/>
            </g>
            <g id="Path-3" data-name="Path">
              <path d="m66.9487,14.9378c-.1582,0-.3174-.0542-.4482-.1641-.292-.2476-.3291-.6855-.0811-.978l.9854-1.1646c.2471-.2925.6855-.3271.9775-.0815.292.2476.3291.6855.0811.978l-.9854,1.1646c-.1367.1621-.333.2456-.5293.2456Z" style="fill: #fff;"/>
            </g>
            <g id="Path-4" data-name="Path">
              <path d="m74.8327,48.2901s-.6272-1.0751-.0896-2.2399c.5376-1.0751,1.5231-.896,1.5231-.896,0,0,3.4942,1.6127,4.0318,3.1358s1.2543,3.5838-5.4653,0h0Z" style="fill: #ebbce6; fill-rule: evenodd;"/>
            </g>
            <g id="Path-5" data-name="Path">
              <path d="m80.0292,24.637s-1.4335,0-1.4335-1.8815.0896-2.9566.7168-3.315c.6272-.3584,1.6127-.448,1.1647,1.6127-.4479,2.0607-.4479,3.5838-.4479,3.5838h0Z" style="fill: #ebbce6; fill-rule: evenodd;"/>
            </g>
            <g id="Path-6" data-name="Path">
              <path d="m32.9917,47.8421s-.896-.2688-2.1503,0h2.1503Z" style="fill: #de52c8; fill-rule: evenodd;"/>
              <path d="m32.9917,48.5359c-.0645,0-.1299-.0093-.1953-.0283-.0273-.0073-.7793-.208-1.8096.0127-.3721.0796-.7441-.1582-.8242-.5332-.0801-.3745.1592-.7432.5332-.8232,1.4111-.3027,2.4512.0005,2.4951.0137.3672.1104.5752.4971.4648.8638-.0898.3008-.3652.4946-.6641.4946Z" style="fill: #fff;"/>
            </g>
            <g id="Path-7" data-name="Path">
              <path d="m81.9299,48.0009c-.02-.26-.0699-.53-.1499-.83-.03-.11-.0601-.22-.1001-.34-.0699-.21-.1399-.42-.23-.62-.11-.28-.25-.56-.3999-.82-1.8601-3.33-6.03-5.18-9.1801-6.5699l-.87-.39c-3.67-1.65-10.03-1.93-10.29-1.94-.0701,0-.1399,0-.21.02-.01,0-.98.24-1.5701-.35-.5-.56-2.28-5.47-3.79-10.07.3-.21.5701-.43.8101-.68l10.97-10.19c1.6501,1.05,4.98,2.54,6.05,3.01,1.23,5.93,4.23,7.16,5.49,7.41,1.12.2401,2.1899-.02,2.5901-.61v-.01c.45-.66.4299-2.75.21-7.49-.05-1.08-.0901-2.02-.0901-2.57,0-.51-.0499-.94-.1199-1.3-.04-.2-.0801-.37-.1401-.53v-.01c-.1699-.5-.3799-.82-.5499-1.06v-.01l-.01-.01c-.0499-.08-.11-.17-.17-.29-.26-.5-1.9299-5.82-2.4399-7.56-.46-1.56-1.01-1.93-1.53-1.93-.8999-.17-8.7-1.55-12.5601-2.14-4.3699-.67-7.3199,1.66-7.4099,1.73l-4.23,3.01c-.9.5-22.1801,12.37-29.75,18.43-4.01,3.18-4.66,5.33-4.71,5.52L0,82.2509v4.45L18.88,29.2109c0-.02.59-1.94,4.24-4.84,7.49-5.99,29.34-18.18,29.63-18.34l4.33-3.07c.02-.02,1.9901-1.57,5.01-1.57.4301,0,.88.03,1.35.1,3.89.59,11.8101,2,12.5601,2.14.0701.09.23.34.4099.95.1201.41,1.3101,4.33,2.05,6.4901.21.62.39,1.1.49,1.31.0701.16.16.3.26.44.0601.09.13.19.2.31v.0099c.1901.35.3701.8701.3701,1.82,0,.56.0499,1.53.1,2.63.0199.48.0499,1.05.0699,1.65.0801,2.07.15,4.54-.01,4.97-.08.06-.33.14-.71.13-.27-.01-.61-.06-.99-.2-1.1001-.41-3.0901-1.81-3.98-6.53-.04-.23-.2-.42-.41-.51-.0399-.02-4.0399-1.75-5.9501-2.9-.24-.15-.46-.29-.6199-.42-.26-.19-.6101-.19-.8601.01,0,.01-.01.01-.01.01l-.02.02-11.3999,10.59c-.3.31-.61.54-1.02.79l-1.25.72c-.23.12-.35.36-.35.6,0,.11.0299.23.09.34.1899.33.6101.45.95.26l.51-.29c.98,2.97,3.17,9.45,4.03,10.3,1,1,2.3701.83,2.78.75.78.04,6.5.37,9.7,1.81l.8801.4c3.5,1.54,7.8499,3.47,9.0199,7.09.01.02.01.04.02.06.15.45.3199,1.19.15,1.64-.04.1-.0901.19-.16.25-.0299.03-.0599.05-.1.06-.74.47-2.77-.03-3.91-.53-.09-.05-.7-.37-1.6801-.82-2.7799-1.26-8.5399-3.49-13.6799-3.02l-1.6899.15c-5.9301.54-9.51.86-12.6001,2.92-1.8699,1.21-4.83.66-7.96.07-1.79-.34-3.63-.68-5.39-.71-.12-.01-.23-.01-.34-.01-.3101,0-.5801.2-.66.5-.0099.02-.0199.04-.0199.06,0,.01,0,.02-.01.04-.02.1-.0601.3-.1101.59-.8199,4.27-5.26,27.88-5.09,36.25.11,7.56-.33,18.81-1.09,31.81h1.3899c.76-13.01,1.2001-24.26,1.0901-31.84-.16-8.16,4.3101-32,5.0701-36.01,1.5798.06,3.2699.38,4.9099.6801,3.41.64,6.63,1.24,8.97-.27,2.8-1.87,6.25-2.18,11.97-2.69l1.6901-.16c6.52-.59,14.49,3.64,14.62,3.71.63.28,3.72,1.51,5.3301.42.08-.05.1499-.11.22-.17.1199-.11.23-.23.3099-.36v-.01c.02-.03.03-.04.04-.06.11-.16.1901-.34.24-.53v-.0099c.1-.35.12-.7401.0699-1.19Z" style="fill: #fff;"/>
            </g>
          </g>
          <g id="Group-2" data-name="Group">
            <g id="Path-8" data-name="Path">
              <path d="m162,83.9209v13.62c0,10.46-8.48,18.95-18.95,18.95h-7.8601c-.02-2.9-.21-23.51-.8-31.91-.5599-8.22-4.3799-31.79-5.0798-36.0699-.0701-.4301-.1101-.67-.1101-.67h-.09c-.23,0-.4601.01-.7001.03-4.75.24-10.1299,2.55-13.2799.51-3.2301-2.15-7.17-2.33-13.9801-2.96-6.8099-.62-14.96,3.77-14.96,3.77,0,0-1.1299.49-2.34.7-.8099.14-1.65.16-2.23-.16-.02-.01-.04-.03-.0599-.04-.2301-.14-.4102-.34-.51-.62-.1602-.39-.1801-.9301,0-1.67.0299-.14.0699-.29.1199-.45.0801-.25.1801-.5.28-.74,1.7-3.81,6.65-5.73,10.03-7.24,3.5801-1.61,10.03-1.88,10.03-1.88,0,0,1.35.36,2.24-.54.8999-.89,4.12-10.84,4.12-10.84-.4501-.27-.7999-.54-1.16-.89l-10.98-10.2-.4-.38c-.1801.14-.42.3-.7.46-2.01,1.22-6.02,2.95-6.02,2.95-1.48,7.86-5.61,7.71-6.3199,6.96-.01-.02-.03-.04-.04-.06-.1001-.15-.1799-.51-.25-1.01v-.02c-.03-.25-.0601-.53-.0901-.84v-.01c-.08-.94-.1299-2.12-.1499-3.29-.05-1.83-.05-3.64-.05-4.51,0-.58.0601-1.03.15-1.38.23-.85.62-1.17.75-1.49.0299-.06.08-.23.17-.48.51-1.5,1.95-5.92,2.34-7.22.4401-1.53.89-1.44.89-1.44,0,0,8.51-1.52,12.6299-2.15,4.1301-.62,6.9001,1.62,6.9001,1.62l4.2999,3.04s22.04,12.28,29.66,18.37c3.9399,3.14,4.48,5.2,4.48,5.2l18.02,54.98Z" style="fill: #f846d3; fill-rule: evenodd;"/>
            </g>
            <g id="Path-9" data-name="Path">
              <path d="m81.8013,13.5042c-.252,0-.4941-.1367-.6172-.375-.1758-.3403-.043-.7588.2979-.9351l12.8125-6.6299c.5645-.3408,1.4033-.395,2.0996-.1177l16.0283,5.9995c.3574.1377.5361.5391.3984.8965-.1387.3584-.5391.5371-.8965.3984l-2.3291-.896-13.7012-5.1045c-.3027-.1206-.6943-.103-.9238.0347l-12.8516,6.6514c-.1016.0527-.21.0776-.3174.0776Z" style="fill: #fff;"/>
            </g>
            <g id="Path-10" data-name="Path">
              <path d="m95.1509,14.9378c-.1963,0-.3926-.0835-.5293-.2456l-.9863-1.1646c-.248-.2925-.2119-.73.0811-.9775.29-.2461.7305-.2124.9775.0811l.9863,1.1646c.248.2925.2119.73-.0811.9775-.1299.1104-.2891.1646-.4482.1646Z" style="fill: #fff;"/>
            </g>
            <g id="Path-11" data-name="Path">
              <path d="m87.266,48.2901s.6272-1.0751.0896-2.2399c-.5375-1.0751-1.5231-.896-1.5231-.896,0,0-3.4942,1.6127-4.0318,3.1358-.3583,1.4335-1.2543,3.5838,5.4653,0h0Z" style="fill: #ebbce6; fill-rule: evenodd;"/>
            </g>
            <g id="Path-12" data-name="Path">
              <path d="m82.0695,24.637s1.4335,0,1.4335-1.8815-.0896-2.9566-.7168-3.315-1.6127-.448-1.1647,1.6127c.448,2.0607.448,3.5838.448,3.5838h0Z" style="fill: #ebbce6; fill-rule: evenodd;"/>
            </g>
            <g id="Path-13" data-name="Path">
              <path d="m129.107,47.8421s.896-.2688,2.1503,0h-2.1503Z" style="fill: #de52c8; fill-rule: evenodd;"/>
              <path d="m131.2583,48.5359c-.0488,0-.0977-.0049-.1465-.0156-1.0439-.2227-1.8027-.0142-1.8105-.0122-.3623.105-.75-.106-.8574-.4727-.1074-.3657.0986-.7485.4639-.8579.0449-.0122,1.082-.3159,2.4951-.0137.374.0801.6133.4487.5332.8237-.0703.3257-.3574.5483-.6777.5483Z" style="fill: #fff;"/>
            </g>
            <g id="Path-14" data-name="Path">
              <path d="m144.5601,28.8509c-.0601-.23-.7101-2.38-4.7201-5.56-7.5699-6.06-28.85-17.93-29.6801-18.39l-4.27-3.02c-.1199-.1-3.0698-2.4301-7.4399-1.76-3.86.59-11.6599,1.97-12.5601,2.14-.45.0099-1.0698.37-1.5299,1.93-.4401,1.5099-2.3199,7.23-2.49,7.65-.01.03-.0699.12-.13.2,0,.01-.01.01-.02.02,0,0,0,.01-.01.01-.1499.24-.36.56-.53,1.06-.0499.16-.09.33-.1299.53-.0701.36-.1201.79-.1201,1.3,0,.55-.04,1.49-.09,2.57-.22,4.74-.24,6.83.2001,7.49,0,0,0,.01.01.01.3999.59,1.47.84,2.5898.61,1.26-.25,4.26-1.48,5.4901-7.41,1.0699-.47,4.4-1.96,6.0499-3.01l10.9501,10.18c.2599.25.5199.48.83.69-1.51,4.6-3.29,9.51-3.79,10.06-.59.59-1.5599.36-1.5699.36-.0699-.02-.14-.02-.2101-.02-.2699.01-6.6199.29-10.2899,1.94l-.87.39c-3.15,1.39-7.3201,3.24-9.1799,6.5699-.1501.26-.29.54-.4001.82-.0898.2-.1599.41-.23.62-.0399.12-.0699.2401-.09.35-.09.29-.14.56-.16.82-.0599.45-.03.85.0701,1.19.05.2.13.38.23.54h.01c.02.06.0601.11.1.16.0699.1.16.19.25.27.0699.06.14.12.2201.17,1.6099,1.1,4.7-.14,5.3799-.44.0801-.05,8.03-4.29,14.5701-3.69l1.6899.16c5.72.51,9.16.82,11.97,2.69,2.3401,1.51,5.5601.91,8.9701.27,1.64-.3,3.33-.6201,4.91-.6801.76,4.01,5.23,27.86,5.0699,36.01-.11,7.58.33,18.83,1.09,31.84h1.39c-.76-13-1.2001-24.25-1.09-31.81.1699-8.37-4.27-31.98-5.0901-36.25-.0499-.29-.0898-.49-.1099-.59-.01-.02-.01-.03-.01-.04,0-.02-.01-.04-.02-.06-.0801-.3-.3501-.5-.66-.5-.12,0-.23,0-.35.01-1.76.03-3.6001.37-5.38.71-3.13.59-6.09,1.14-7.9501-.07-3.1-2.06-6.6799-2.3799-12.6099-2.92l-1.6901-.15c-5.14-.47-10.92,1.77-13.6801,3.03-.96.43-1.55.75-1.62.79-1.2.51-3.21,1.02-3.97.56v-.0099c-.0399,0-.08-.03-.11-.06-.05-.04-.0901-.1-.12-.16-.2301-.44-.04-1.25.12-1.73.01-.02.02-.05.03-.07,1.1699-3.62,5.51-5.54,9.01-7.08l.8799-.4c3.2001-1.44,8.92-1.77,9.6901-1.81.42.08,1.7899.25,2.7899-.75.8501-.85,3.05-7.33,4.03-10.3l.51.29c.3401.19.76.07.95-.26.0601-.11.0901-.23.0901-.34,0-.24-.12-.48-.35-.6l-1.25-.72c-.41-.25-.7201-.48-1.04-.8l-11.38-10.58-.02-.02s-.01,0-.01-.01c-.25-.2-.6-.2-.8599-.01-.1602.13-.3801.27-.6201.42-1.9099,1.15-5.9099,2.88-5.95,2.9-.22.09-.37.28-.41.51-.89,4.72-2.88,6.12-3.99,6.53-.38.15-.7101.2-.98.2h-.01c-.37.02-.6-.04-.64-.05-.21-.49-.1499-2.97-.0701-5.05.03-.6.05-1.17.0701-1.65.05-1.1.0901-2.07.0901-2.63,0-.95.1899-1.47.3799-1.82v-.0099c.0701-.12.14-.22.2-.31.1001-.15.2001-.29.27-.47.05-.13.2101-.6.4301-1.25.64-1.92,1.78-5.43,2.1-6.52.1801-.61.3401-.86.41-.95.75-.14,8.67-1.55,12.5599-2.14,3.75-.57,6.3301,1.45,6.3901,1.49l4.3699,3.09c.22.12,22.0701,12.31,29.5601,18.3,3.65,2.9,4.24,4.82,4.25,4.87l18.77,57.21v-4.45l-17.4399-53.15Z" style="fill: #fff;"/>
            </g>
          </g>
        </g>
      </g>
    </g>
  </g>
  <path d="m162-26.5591v124.1c0,10.46-8.48,18.95-18.95,18.95H18.95c-10.46,0-18.95-8.49-18.95-18.95V-26.5591c0-10.47,8.49-18.95,18.95-18.95h124.1001c10.47,0,18.95,8.48,18.95,18.95Z" style="fill: none;"/>
</svg>