# Blender v3.5.1 OBJ File: 'peg_in_hole.blend'
# www.blender.org
mtllib peg_collision_8.mtl
o peg_collision_8_Cube.001
v -0.010000 0.015966 0.045022
v -0.010000 0.022065 0.052361
v 0.010000 0.015966 0.045022
v 0.010000 0.022065 0.052361
v -0.010000 -0.015889 0.044878
v -0.010000 -0.022111 0.052346
v 0.010000 -0.015889 0.044878
v 0.010000 -0.022111 0.052346
vt 0.375000 0.000000
vt 0.625000 0.000000
vt 0.625000 0.250000
vt 0.375000 0.250000
vt 0.625000 0.500000
vt 0.375000 0.500000
vt 0.625000 0.750000
vt 0.375000 0.750000
vt 0.625000 1.000000
vt 0.375000 1.000000
vt 0.125000 0.500000
vt 0.125000 0.750000
vt 0.875000 0.500000
vt 0.875000 0.750000
vn 0.0000 0.7691 -0.6392
vn 1.0000 0.0000 0.0000
vn 0.0000 -0.7683 -0.6401
vn -1.0000 0.0000 0.0000
vn 0.0000 0.0045 -1.0000
vn 0.0000 -0.0003 1.0000
usemtl None
s off
f 1/1/1 2/2/1 4/3/1 3/4/1
f 3/4/2 4/3/2 8/5/2 7/6/2
f 7/6/3 8/5/3 6/7/3 5/8/3
f 5/8/4 6/7/4 2/9/4 1/10/4
f 3/11/5 7/6/5 5/8/5 1/12/5
f 8/5/6 4/13/6 2/14/6 6/7/6
